HIERARCHY
ROOT Root
{
  OFFSET 0.0 0.0 0.0
  CHANNELS 6 Xposition Yposition Zposition Zrotation Yrotation Xrotation
  JOINT Hips
  {
    OFFSET 0.0 100.0 0.0
    CHANNELS 6 Xposition Yposition Zposition Zrotation Yrotation Xrotation
    JOINT Spine1
    {
      OFFSET -0.013727 5.003763 -0.053727
      CHANNELS 3 Zrotation Yrotation Xrotation
      JOINT Spine2
      {
        OFFSET -0.0 7.125301 -0.029825
        CHANNELS 3 Zrotation Yrotation Xrotation
        JOINT Chest
        {
          OFFSET -1e-06 7.550063 -0.815971
          CHANNELS 3 Zrotation Yrotation Xrotation
          JOINT Neck1
          {
            OFFSET -0.181677 26.311295 -0.553348
            CHANNELS 3 Zrotation Yrotation Xrotation
            JOINT Neck2
            {
              OFFSET -3e-06 7.709397 2.302585
              CHANNELS 3 Zrotation Yrotation Xrotation
              JOINT Head
              {
                OFFSET -5e-06 6.128916 1.953709
                CHANNELS 3 Zrotation Yrotation Xrotation
                JOINT HeadEnd
                {
                  OFFSET 0.003598 16.065403 -1.835379
                  CHANNELS 3 Zrotation Yrotation Xrotation
                }
                JOINT Jaw
                {
                  OFFSET 0.002637 0.475592 3.094941
                  CHANNELS 3 Zrotation Yrotation Xrotation
                }
                JOINT LeftEye
                {
                  OFFSET 3.206381 5.380205 7.586883
                  CHANNELS 3 Zrotation Yrotation Xrotation
                }
                JOINT RightEye
                {
                  OFFSET -3.22244 5.361869 7.558234
                  CHANNELS 3 Zrotation Yrotation Xrotation
                }
              }
            }
          }
          JOINT LeftShoulder
          {
            OFFSET 1.621652 23.237164 5.113413
            CHANNELS 3 Zrotation Yrotation Xrotation
            JOINT LeftArm
            {
              OFFSET 14.919846 2e-06 -5.502326
              CHANNELS 3 Zrotation Yrotation Xrotation
              JOINT LeftForeArm
              {
                OFFSET 28.739307 0.0 -0.002588
                CHANNELS 3 Zrotation Yrotation Xrotation
                JOINT LeftHand
                {
                  OFFSET 27.093981 -1e-06 0.002609
                  CHANNELS 3 Zrotation Yrotation Xrotation
                  JOINT LeftHandThumb1
                  {
                    OFFSET 2.276482 -1.392045 3.191413
                    CHANNELS 3 Zrotation Yrotation Xrotation
                    JOINT LeftHandThumb2
                    {
                      OFFSET 4.012836 -1.828127 1.641654
                      CHANNELS 3 Zrotation Yrotation Xrotation
                      JOINT LeftHandThumb3
                      {
                        OFFSET 2.798515 0.0 -3e-06
                        CHANNELS 3 Zrotation Yrotation Xrotation
                        JOINT LeftHandThumbEnd
                        {
                          OFFSET 3.180793 -4e-06 4e-06
                          CHANNELS 3 Zrotation Yrotation Xrotation
                        }
                      }
                    }
                  }
                  JOINT LeftHandIndex1
                  {
                    OFFSET 3.247555 -0.531998 2.296169
                    CHANNELS 3 Zrotation Yrotation Xrotation
                    JOINT LeftHandIndex2
                    {
                      OFFSET 6.364578 0.01206 0.1786
                      CHANNELS 3 Zrotation Yrotation Xrotation
                      JOINT LeftHandIndex3
                      {
                        OFFSET 3.662364 0.0 0.0
                        CHANNELS 3 Zrotation Yrotation Xrotation
                        JOINT LeftHandIndex4
                        {
                          OFFSET 2.329242 4e-06 4e-06
                          CHANNELS 3 Zrotation Yrotation Xrotation
                          JOINT LeftHandIndexEnd
                          {
                            OFFSET 2.759615 -0.180537 -0.113024
                            CHANNELS 3 Zrotation Yrotation Xrotation
                          }
                        }
                      }
                    }
                  }
                  JOINT LeftHandMiddle1
                  {
                    OFFSET 3.163495 0.240981 1.000332
                    CHANNELS 3 Zrotation Yrotation Xrotation
                    JOINT LeftHandMiddle2
                    {
                      OFFSET 6.19078 -0.259278 -1.002548
                      CHANNELS 3 Zrotation Yrotation Xrotation
                      JOINT LeftHandMiddle3
                      {
                        OFFSET 4.35652 -4e-06 -1e-06
                        CHANNELS 3 Zrotation Yrotation Xrotation
                        JOINT LeftHandMiddle4
                        {
                          OFFSET 2.996877 -8e-06 0.0
                          CHANNELS 3 Zrotation Yrotation Xrotation
                          JOINT LeftHandMiddleEnd
                          {
                            OFFSET 2.304287 -0.294569 -0.031741
                            CHANNELS 3 Zrotation Yrotation Xrotation
                          }
                        }
                      }
                    }
                  }
                  JOINT LeftHandRing1
                  {
                    OFFSET 2.882643 -0.053652 -0.322543
                    CHANNELS 3 Zrotation Yrotation Xrotation
                    JOINT LeftHandRing2
                    {
                      OFFSET 5.854541 -0.486202 -1.373841
                      CHANNELS 3 Zrotation Yrotation Xrotation
                      JOINT LeftHandRing3
                      {
                        OFFSET 4.350578 0.0 3e-06
                        CHANNELS 3 Zrotation Yrotation Xrotation
                        JOINT LeftHandRing4
                        {
                          OFFSET 2.651321 7e-06 2e-06
                          CHANNELS 3 Zrotation Yrotation Xrotation
                          JOINT LeftHandRingEnd
                          {
                            OFFSET 1.936105 0.077687 -7.1e-05
                            CHANNELS 3 Zrotation Yrotation Xrotation
                          }
                        }
                      }
                    }
                  }
                  JOINT LeftHandPinky1
                  {
                    OFFSET 2.8655 -0.310005 -1.600378
                    CHANNELS 3 Zrotation Yrotation Xrotation
                    JOINT LeftHandPinky2
                    {
                      OFFSET 5.087849 -1.331141 -1.77123
                      CHANNELS 3 Zrotation Yrotation Xrotation
                      JOINT LeftHandPinky3
                      {
                        OFFSET 3.070974 4e-06 0.0
                        CHANNELS 3 Zrotation Yrotation Xrotation
                        JOINT LeftHandPinky4
                        {
                          OFFSET 1.549672 0.0 1e-06
                          CHANNELS 3 Zrotation Yrotation Xrotation
                          JOINT LeftHandPinkyEnd
                          {
                            OFFSET 1.944893 -0.157802 0.057219
                            CHANNELS 3 Zrotation Yrotation Xrotation
                          }
                        }
                      }
                    }
                  }
                }
              }
            }
          }
          JOINT RightShoulder
          {
            OFFSET -1.380118 23.180309 5.214158
            CHANNELS 3 Zrotation Yrotation Xrotation
            JOINT RightArm
            {
              OFFSET -15.037196 1.2e-05 -5.545604
              CHANNELS 3 Zrotation Yrotation Xrotation
              JOINT RightForeArm
              {
                OFFSET -28.736639 2e-06 -0.002597
                CHANNELS 3 Zrotation Yrotation Xrotation
                JOINT RightHand
                {
                  OFFSET -27.133619 -0.0 0.002613
                  CHANNELS 3 Zrotation Yrotation Xrotation
                  JOINT RightHandThumb1
                  {
                    OFFSET -2.274032 -1.383988 3.163127
                    CHANNELS 3 Zrotation Yrotation Xrotation
                    JOINT RightHandThumb2
                    {
                      OFFSET -4.011429 -1.827466 1.640914
                      CHANNELS 3 Zrotation Yrotation Xrotation
                      JOINT RightHandThumb3
                      {
                        OFFSET -2.794935 -4e-06 -3e-06
                        CHANNELS 3 Zrotation Yrotation Xrotation
                        JOINT RightHandThumbEnd
                        {
                          OFFSET -3.183852 4e-06 1e-06
                          CHANNELS 3 Zrotation Yrotation Xrotation
                        }
                      }
                    }
                  }
                  JOINT RightHandIndex1
                  {
                    OFFSET -3.253266 -0.520057 2.282866
                    CHANNELS 3 Zrotation Yrotation Xrotation
                    JOINT RightHandIndex2
                    {
                      OFFSET -6.341917 0.012471 0.178266
                      CHANNELS 3 Zrotation Yrotation Xrotation
                      JOINT RightHandIndex3
                      {
                        OFFSET -3.654871 -8e-06 -0.0
                        CHANNELS 3 Zrotation Yrotation Xrotation
                        JOINT RightHandIndex4
                        {
                          OFFSET -2.327586 0.0 1e-06
                          CHANNELS 3 Zrotation Yrotation Xrotation
                          JOINT RightHandIndexEnd
                          {
                            OFFSET -2.76179 -0.180656 -0.113078
                            CHANNELS 3 Zrotation Yrotation Xrotation
                          }
                        }
                      }
                    }
                  }
                  JOINT RightHandMiddle1
                  {
                    OFFSET -3.168106 0.246593 1.00103
                    CHANNELS 3 Zrotation Yrotation Xrotation
                    JOINT RightHandMiddle2
                    {
                      OFFSET -6.180828 -0.258836 -1.000895
                      CHANNELS 3 Zrotation Yrotation Xrotation
                      JOINT RightHandMiddle3
                      {
                        OFFSET -4.348901 0.0 -0.0
                        CHANNELS 3 Zrotation Yrotation Xrotation
                        JOINT RightHandMiddle4
                        {
                          OFFSET -3.00024 -4e-06 -2e-06
                          CHANNELS 3 Zrotation Yrotation Xrotation
                          JOINT RightHandMiddleEnd
                          {
                            OFFSET -2.30252 -0.29437 -0.031706
                            CHANNELS 3 Zrotation Yrotation Xrotation
                          }
                        }
                      }
                    }
                  }
                  JOINT RightHandRing1
                  {
                    OFFSET -2.88569 -0.067952 -0.308858
                    CHANNELS 3 Zrotation Yrotation Xrotation
                    JOINT RightHandRing2
                    {
                      OFFSET -5.854198 -0.48613 -1.373731
                      CHANNELS 3 Zrotation Yrotation Xrotation
                      JOINT RightHandRing3
                      {
                        OFFSET -4.33881 -4e-06 -0.0
                        CHANNELS 3 Zrotation Yrotation Xrotation
                        JOINT RightHandRing4
                        {
                          OFFSET -2.654903 -4e-06 4e-06
                          CHANNELS 3 Zrotation Yrotation Xrotation
                          JOINT RightHandRingEnd
                          {
                            OFFSET -1.933568 0.077527 -5.2e-05
                            CHANNELS 3 Zrotation Yrotation Xrotation
                          }
                        }
                      }
                    }
                  }
                  JOINT RightHandPinky1
                  {
                    OFFSET -2.866425 -0.342796 -1.584145
                    CHANNELS 3 Zrotation Yrotation Xrotation
                    JOINT RightHandPinky2
                    {
                      OFFSET -5.091371 -1.332055 -1.772385
                      CHANNELS 3 Zrotation Yrotation Xrotation
                      JOINT RightHandPinky3
                      {
                        OFFSET -3.062664 -4e-06 1e-06
                        CHANNELS 3 Zrotation Yrotation Xrotation
                        JOINT RightHandPinky4
                        {
                          OFFSET -1.546529 4e-06 -2e-06
                          CHANNELS 3 Zrotation Yrotation Xrotation
                          JOINT RightHandPinkyEnd
                          {
                            OFFSET -1.945119 -0.157718 0.057211
                            CHANNELS 3 Zrotation Yrotation Xrotation
                          }
                        }
                      }
                    }
                  }
                }
              }
            }
          }
        }
      }
    }
    JOINT LeftLeg
    {
      OFFSET 10.043214 -8.434526 2.595655
      CHANNELS 3 Zrotation Yrotation Xrotation
      JOINT LeftShin
      {
        OFFSET -1e-06 -43.221752 -0.802913
        CHANNELS 3 Zrotation Yrotation Xrotation
        JOINT LeftFoot
        {
          OFFSET 1e-06 -42.155094 -3.481523
          CHANNELS 3 Zrotation Yrotation Xrotation
          JOINT LeftToeBase
          {
            OFFSET 0.0 -5.059472 13.231529
            CHANNELS 3 Zrotation Yrotation Xrotation
            JOINT LeftToeEnd
            {
              OFFSET -0.009607 -1.647619 6.513017
              CHANNELS 3 Zrotation Yrotation Xrotation
            }
          }
        }
      }
    }
    JOINT RightLeg
    {
      OFFSET -10.047278 -8.29526 2.620317
      CHANNELS 3 Zrotation Yrotation Xrotation
      JOINT RightShin
      {
        OFFSET 1e-06 -43.362206 -0.805556
        CHANNELS 3 Zrotation Yrotation Xrotation
        JOINT RightFoot
        {
          OFFSET 2e-06 -42.117393 -3.478398
          CHANNELS 3 Zrotation Yrotation Xrotation
          JOINT RightToeBase
          {
            OFFSET -0.0 -5.079609 13.284196
            CHANNELS 3 Zrotation Yrotation Xrotation
            JOINT RightToeEnd
            {
              OFFSET 0.009532 -1.634378 6.460591
              CHANNELS 3 Zrotation Yrotation Xrotation
            }
          }
        }
      }
    }
  }
}
MOTION
Frames: 4
Frame Time: 0.03333333333333333
0.0 0.0 0.0 0.0 -0.0 0.0 3.70885 92.801109 222.804886 4.133312 8.310701 -3.743209 -4.292926 -0.136899 0.782374 -1.257869 -2.118826 -4.327439 -1.585833 -3.488057 11.594332 5.09829 0.338426 5.043953 -1.063769 -0.93079 -3.470327 -0.577935 -2.031089 -8.056867 7.7e-05 -2.2e-05 6e-06 0.010795 0.028631 0.070129 0.701432 -3.71693 -10.682528 -0.68472 3.779153 -10.655398 -10.914173 -11.094582 12.974905 -52.443352 -17.902262 16.985518 -0.251987 -24.950401 0.039512 4.444947 -1.842239 -2.83935 -5.882108 9.861287 0.702591 -10.936875 -0.360574 7.156208 1e-06 8.774826 1e-06 -15.916246 18.369892 6.129749 -1.844033 2.498505 -2.507278 -10.163604 4.678946 4.621109 -20.97603 -3e-06 2e-06 -21.226292 2.451698 -3.593998 1e-06 -5e-06 0.0 -1.362681 2.240797 -0.746324 -21.334921 0.584911 3.008326 -13.821218 -2e-06 1e-06 -23.887178 -0.249077 -0.839482 -61.169216 2.498721 -1.25235 -0.294025 1.679688 0.833255 -14.218211 0.093216 1.300581 -34.212051 -0.287562 0.96717 -20.033215 0.964539 1.212843 1e-06 -1e-06 -0.0 -3.440389 0.788233 0.501656 -15.928191 -3.167309 2.99971 -6.338829 -1e-06 -1e-06 -18.123455 3.648183 -4.905671 -5e-06 -0.0 0.0 15.950447 7.75455 13.556711 68.812263 0.604029 4.65334 -0.291357 17.475912 0.030315 6.42728 2.532072 -2.656235 2.243541 -5.255036 -3.180156 14.282887 -0.826594 6.952502 -2e-06 -12.690603 1e-06 16.336931 -18.017962 2.571876 1.665666 -1.955922 -2.878298 4.727798 -4.170586 4.993923 11.020524 3e-06 -1e-06 12.109052 -3.735715 -2.866784 0.0 0.0 -0.0 1.291985 -1.928549 -1.498089 14.800127 0.567469 3.865608 14.242569 -1.341736 -6.660657 19.631968 0.143926 -0.648244 50.191608 -0.324651 -6.509969 0.353029 -1.51115 -0.03194 20.222788 3.68431 2.316629 18.78727 6e-06 -1e-06 10.751629 -0.479867 1.397906 -1e-06 -1e-06 0.0 3.273806 0.305947 -0.580111 21.486809 11.830372 2.266134 8.162925 3e-06 0.0 18.399076 -3.798983 -4.940573 4e-06 1e-06 -1e-06 -3.985936 0.081356 26.557863 -0.019463 -0.19358 2.910604 2.640512 -2.895961 -16.928465 1.847965 -1.837877 -5.372279 -0.0 -0.0 2e-06 -3.201412 -10.145706 -27.635641 0.216469 0.221516 -0.095087 4.617843 -8.171434 -3.121214 -1.274502 1.19276 -6.239447 -0.0 -0.0 -1e-06 
0.0 0.0 0.0 0.0 -0.0 0.0 3.023219 92.572716 228.553528 2.000755 8.703416 -2.370796 -3.003677 -0.286892 -0.361437 -1.121584 -2.157041 -4.73217 -0.830252 -3.808791 11.616309 5.021969 0.596928 3.916944 -1.187011 -1.136641 -3.474295 -0.772697 -2.183622 -6.989562 7.7e-05 -2.3e-05 6e-06 0.002942 -0.017881 0.042781 0.685054 -3.749483 -10.639256 -0.679913 3.717978 -10.624968 -12.630136 -11.019708 12.888183 -51.24453 -16.649549 16.274406 -0.210722 -25.03783 -0.012455 4.094061 -1.910646 -3.588982 -5.88211 9.861294 0.702594 -10.93688 -0.360574 7.156213 1e-06 8.774835 1e-06 -16.01351 18.268223 6.007735 -1.844033 2.498506 -2.507281 -10.163607 4.678948 4.621115 -20.97604 -5e-06 1e-06 -21.226301 2.451698 -3.594001 1e-06 -6e-06 -2e-06 -1.362683 2.2408 -0.746324 -21.334932 0.58491 3.008325 -13.821227 -3e-06 2e-06 -23.887192 -0.24908 -0.839484 -61.040146 2.310231 -1.293687 -0.294024 1.679689 0.833257 -14.218221 0.093214 1.300581 -34.212078 -0.287568 0.96717 -20.033232 0.964536 1.212847 -1e-06 -1e-06 -1e-06 -3.440392 0.788234 0.501655 -15.928201 -3.167313 2.99971 -6.33883 -2e-06 -1e-06 -18.123459 3.648183 -4.905674 -5e-06 1e-06 -1e-06 17.743015 7.581467 13.328415 66.957161 -0.315135 4.821677 -0.221275 16.285824 0.077271 6.415874 2.067659 -2.099319 2.243543 -5.25504 -3.180158 14.2829 -0.826595 6.952507 -2e-06 -12.69061 -1e-06 16.306557 -18.021219 2.491869 1.665667 -1.955923 -2.878299 4.727802 -4.17059 4.993925 11.020534 3e-06 -2e-06 12.109058 -3.735717 -2.866784 -0.0 -1e-06 -0.0 1.291986 -1.928551 -1.49809 14.800136 0.567468 3.86561 14.242582 -1.341738 -6.660661 19.631975 0.143925 -0.648245 50.334549 -0.211854 -6.472125 0.353029 -1.511152 -0.03194 20.222803 3.684312 2.316632 18.787287 5e-06 -2e-06 10.751636 -0.479869 1.397907 -0.0 -1e-06 0.0 3.273808 0.305947 -0.580111 21.486828 11.830384 2.266136 8.162934 2e-06 0.0 18.399096 -3.798987 -4.94058 5e-06 0.0 -1e-06 0.073797 0.939124 25.906025 0.112316 -0.58045 7.354977 2.888354 -4.594582 -14.222647 1.966528 -1.789761 -11.415586 -0.0 -0.0 2e-06 -0.501182 -9.206662 -29.784122 0.187313 0.133947 5.253242 1.032376 -8.257542 4.233457 -1.358912 1.209734 -7.057589 -0.0 -0.0 -0.0 
0.0 0.0 0.0 0.0 -0.0 0.0 2.239181 92.803352 234.631134 -0.371873 8.470367 -1.544403 -1.750706 -0.379711 -1.212964 -0.846952 -2.346653 -5.096798 0.40023 -3.918234 11.410002 4.320959 1.023584 3.172176 -1.358492 -0.754695 -3.587297 -0.959394 -2.206264 -6.104939 7.7e-05 -2.3e-05 6e-06 7.4e-05 -0.065527 0.00185 0.713251 -3.795171 -10.670306 -0.711679 3.668689 -10.664698 -14.415739 -10.66537 12.635734 -50.998829 -14.504104 15.468206 -0.061777 -24.629976 -0.073382 3.24951 -2.314691 -4.249411 -5.882108 9.861289 0.70259 -10.936873 -0.360574 7.156208 -1e-06 8.77483 -1e-06 -16.309542 18.152426 5.776595 -1.844033 2.498506 -2.507279 -10.163602 4.678948 4.621109 -20.976027 -2e-06 -0.0 -21.226292 2.451699 -3.594004 1e-06 -6e-06 -0.0 -1.362682 2.240799 -0.746325 -21.334919 0.58491 3.008324 -13.821217 -1e-06 -0.0 -23.88718 -0.249078 -0.839485 -60.852528 2.127101 -1.17801 -0.294024 1.679687 0.833257 -14.218212 0.093216 1.300579 -34.212063 -0.287564 0.967169 -20.033215 0.964537 1.212844 0.0 -1e-06 0.0 -3.440389 0.788233 0.501656 -15.928189 -3.16731 2.999707 -6.338828 -1e-06 1e-06 -18.123453 3.648184 -4.905674 -4e-06 -0.0 -0.0 18.837149 7.952348 13.365134 65.616905 -0.961186 4.896351 -0.374333 14.687893 0.021798 6.143154 1.478894 -1.184286 2.243542 -5.255038 -3.180159 14.282896 -0.826594 6.952505 -2e-06 -12.690609 -1e-06 16.361568 -17.963703 2.382654 1.665667 -1.955922 -2.8783 4.727801 -4.170588 4.993926 11.020534 4e-06 -1e-06 12.109058 -3.735718 -2.866785 0.0 -1e-06 1e-06 1.291986 -1.92855 -1.498089 14.800134 0.567469 3.865609 14.242579 -1.341736 -6.660658 19.631979 0.143927 -0.648243 50.394283 -0.086729 -6.448606 0.353029 -1.511151 -0.03194 20.222801 3.684312 2.316633 18.787283 5e-06 -1e-06 10.751633 -0.479868 1.397907 -1e-06 0.0 -0.0 3.273808 0.305947 -0.580111 21.486824 11.830379 2.266135 8.16293 2e-06 -1e-06 18.399094 -3.798986 -4.940577 5e-06 0.0 -1e-06 4.171619 1.947586 23.609482 0.129916 -0.747112 15.151079 3.733997 -5.257558 -7.608273 2.10341 -1.656052 -21.421732 0.0 -0.0 2e-06 2.027979 -6.731822 -31.895 0.15563 0.105716 12.112527 -1.810314 -8.817383 11.119411 -1.391309 1.147039 -5.470122 0.0 -0.0 -1e-06 
0.0 0.0 0.0 0.0 -0.0 0.0 1.53111 93.469078 240.906311 -2.198681 7.433096 -1.665783 -0.792728 -0.31159 -1.307791 -0.509077 -2.559388 -5.162411 1.460739 -3.897852 10.836762 3.398518 1.51555 3.060401 -1.380748 -0.276056 -3.614281 -1.069148 -1.604295 -6.076326 7.7e-05 -2.3e-05 6e-06 0.002537 -0.036989 0.011809 0.757154 -3.762086 -10.659057 -0.750672 3.692515 -10.65193 -14.139118 -10.451938 12.576228 -53.85519 -12.40433 14.306046 0.326691 -22.779057 -0.2022 2.335114 -2.577821 -5.038485 -5.88211 9.861288 0.702592 -10.936877 -0.360573 7.156207 -0.0 8.774828 0.0 -16.433943 17.945803 5.65842 -1.844033 2.498505 -2.507279 -10.163604 4.678948 4.621109 -20.976034 -2e-06 -0.0 -21.226301 2.451697 -3.594002 2e-06 -6e-06 0.0 -1.362682 2.240799 -0.746323 -21.334929 0.584912 3.008325 -13.82122 -2e-06 -1e-06 -23.887184 -0.249079 -0.839486 -60.671764 2.077895 -1.197496 -0.294025 1.679687 0.833257 -14.218215 0.093216 1.300579 -34.212067 -0.287562 0.967165 -20.033222 0.964536 1.212842 -0.0 1e-06 1e-06 -3.44039 0.788235 0.501657 -15.928194 -3.167308 2.999707 -6.33883 -2e-06 0.0 -18.123457 3.648185 -4.905674 -4e-06 -0.0 -3e-06 17.871603 8.546951 13.639971 66.175003 -0.948595 5.030867 -0.536153 13.096622 -0.014377 5.605827 0.736929 -1.531682 2.243541 -5.255037 -3.180158 14.282889 -0.826595 6.952502 -1e-06 -12.690606 -1e-06 16.35177 -17.933989 2.393428 1.665666 -1.955922 -2.878299 4.727799 -4.170588 4.993924 11.020527 3e-06 -2e-06 12.109053 -3.735718 -2.866785 -0.0 -1e-06 1e-06 1.291986 -1.92855 -1.498089 14.800129 0.567468 3.865608 14.242574 -1.341738 -6.660657 19.631968 0.143926 -0.648244 50.144234 -0.060708 -6.409739 0.353029 -1.511151 -0.031941 20.222794 3.68431 2.316631 18.787279 4e-06 -0.0 10.751631 -0.479869 1.397906 -1e-06 -0.0 1e-06 3.273807 0.305947 -0.580111 21.486813 11.830376 2.266134 8.162928 1e-06 -0.0 18.39908 -3.798987 -4.940576 5e-06 1e-06 -1e-06 6.858784 3.042079 19.781052 0.013087 -0.926056 26.207163 5.240709 -4.39983 3.622563 2.231337 -1.429057 -30.542496 0.0 -0.0 2e-06 4.132476 -4.506895 -31.270061 0.150991 0.068366 17.107838 -2.303767 -8.786517 12.222043 -1.389375 1.079306 -3.898246 -0.0 0.0 -1e-06 
